<mxfile host="app.diagrams.net" modified="2023-12-07T05:11:43.905Z" agent="Mozilla/5.0 (Windows NT 10.0; Win64; x64) AppleWebKit/537.36 (KHTML, like Gecko) Chrome/119.0.0.0 Safari/537.36" etag="jCNPthTsFHS8JECphre-" version="21.3.8" type="device">
  <diagram name="Страница 1" id="VXvwTlj3Exww-t8mDY3R">
    <mxGraphModel dx="794" dy="1903" grid="1" gridSize="10" guides="1" tooltips="1" connect="1" arrows="1" fold="1" page="1" pageScale="1" pageWidth="827" pageHeight="1169" math="0" shadow="0">
      <root>
        <mxCell id="0" />
        <mxCell id="1" parent="0" />
        <mxCell id="HBoP1EM0kPf_Nuan5Jd2-2" value="Class Pet" style="rounded=0;whiteSpace=wrap;html=1;" vertex="1" parent="1">
          <mxGeometry x="150" y="130" width="120" height="60" as="geometry" />
        </mxCell>
        <mxCell id="HBoP1EM0kPf_Nuan5Jd2-3" value="Class Pack" style="rounded=0;whiteSpace=wrap;html=1;" vertex="1" parent="1">
          <mxGeometry x="490" y="130" width="120" height="60" as="geometry" />
        </mxCell>
        <mxCell id="HBoP1EM0kPf_Nuan5Jd2-4" value="Class Dog" style="rounded=0;whiteSpace=wrap;html=1;" vertex="1" parent="1">
          <mxGeometry x="30" y="240" width="80" height="60" as="geometry" />
        </mxCell>
        <mxCell id="HBoP1EM0kPf_Nuan5Jd2-5" value="Class Cat" style="rounded=0;whiteSpace=wrap;html=1;" vertex="1" parent="1">
          <mxGeometry x="140" y="240" width="80" height="60" as="geometry" />
        </mxCell>
        <mxCell id="HBoP1EM0kPf_Nuan5Jd2-6" value="Class Hamster" style="rounded=0;whiteSpace=wrap;html=1;" vertex="1" parent="1">
          <mxGeometry x="250" y="240" width="80" height="60" as="geometry" />
        </mxCell>
        <mxCell id="HBoP1EM0kPf_Nuan5Jd2-8" value="Class Horse" style="rounded=0;whiteSpace=wrap;html=1;" vertex="1" parent="1">
          <mxGeometry x="430" y="240" width="80" height="60" as="geometry" />
        </mxCell>
        <mxCell id="HBoP1EM0kPf_Nuan5Jd2-9" value="Class Camel" style="rounded=0;whiteSpace=wrap;html=1;" vertex="1" parent="1">
          <mxGeometry x="650" y="240" width="80" height="60" as="geometry" />
        </mxCell>
        <mxCell id="HBoP1EM0kPf_Nuan5Jd2-10" value="Class Donkey" style="rounded=0;whiteSpace=wrap;html=1;" vertex="1" parent="1">
          <mxGeometry x="540" y="240" width="80" height="60" as="geometry" />
        </mxCell>
        <mxCell id="HBoP1EM0kPf_Nuan5Jd2-11" value="Class Animal" style="swimlane;fontStyle=0;childLayout=stackLayout;horizontal=1;startSize=30;horizontalStack=0;resizeParent=1;resizeParentMax=0;resizeLast=0;collapsible=1;marginBottom=0;whiteSpace=wrap;html=1;" vertex="1" parent="1">
          <mxGeometry x="320" y="-120" width="120" height="120" as="geometry" />
        </mxCell>
        <mxCell id="HBoP1EM0kPf_Nuan5Jd2-12" value="name: string" style="text;strokeColor=none;fillColor=none;align=left;verticalAlign=middle;spacingLeft=4;spacingRight=4;overflow=hidden;points=[[0,0.5],[1,0.5]];portConstraint=eastwest;rotatable=0;whiteSpace=wrap;html=1;" vertex="1" parent="HBoP1EM0kPf_Nuan5Jd2-11">
          <mxGeometry y="30" width="120" height="30" as="geometry" />
        </mxCell>
        <mxCell id="HBoP1EM0kPf_Nuan5Jd2-13" value="birthday: date" style="text;strokeColor=none;fillColor=none;align=left;verticalAlign=middle;spacingLeft=4;spacingRight=4;overflow=hidden;points=[[0,0.5],[1,0.5]];portConstraint=eastwest;rotatable=0;whiteSpace=wrap;html=1;" vertex="1" parent="HBoP1EM0kPf_Nuan5Jd2-11">
          <mxGeometry y="60" width="120" height="30" as="geometry" />
        </mxCell>
        <mxCell id="HBoP1EM0kPf_Nuan5Jd2-14" value="commands: list" style="text;strokeColor=none;fillColor=none;align=left;verticalAlign=middle;spacingLeft=4;spacingRight=4;overflow=hidden;points=[[0,0.5],[1,0.5]];portConstraint=eastwest;rotatable=0;whiteSpace=wrap;html=1;" vertex="1" parent="HBoP1EM0kPf_Nuan5Jd2-11">
          <mxGeometry y="90" width="120" height="30" as="geometry" />
        </mxCell>
        <mxCell id="HBoP1EM0kPf_Nuan5Jd2-15" value="" style="endArrow=classic;html=1;rounded=0;exitX=0.5;exitY=0;exitDx=0;exitDy=0;entryX=0.25;entryY=1;entryDx=0;entryDy=0;" edge="1" parent="1" source="HBoP1EM0kPf_Nuan5Jd2-4" target="HBoP1EM0kPf_Nuan5Jd2-2">
          <mxGeometry width="50" height="50" relative="1" as="geometry">
            <mxPoint x="100" y="220" as="sourcePoint" />
            <mxPoint x="150" y="170" as="targetPoint" />
          </mxGeometry>
        </mxCell>
        <mxCell id="HBoP1EM0kPf_Nuan5Jd2-16" value="" style="endArrow=classic;html=1;rounded=0;exitX=0.5;exitY=0;exitDx=0;exitDy=0;entryX=0.142;entryY=1.05;entryDx=0;entryDy=0;entryPerimeter=0;" edge="1" parent="1" source="HBoP1EM0kPf_Nuan5Jd2-6">
          <mxGeometry width="50" height="50" relative="1" as="geometry">
            <mxPoint x="123" y="237" as="sourcePoint" />
            <mxPoint x="220" y="190" as="targetPoint" />
          </mxGeometry>
        </mxCell>
        <mxCell id="HBoP1EM0kPf_Nuan5Jd2-17" value="" style="endArrow=classic;html=1;rounded=0;entryX=0.142;entryY=1.05;entryDx=0;entryDy=0;entryPerimeter=0;" edge="1" parent="1">
          <mxGeometry width="50" height="50" relative="1" as="geometry">
            <mxPoint x="470" y="237" as="sourcePoint" />
            <mxPoint x="537" y="190" as="targetPoint" />
          </mxGeometry>
        </mxCell>
        <mxCell id="HBoP1EM0kPf_Nuan5Jd2-18" value="" style="endArrow=classic;html=1;rounded=0;entryX=0.5;entryY=1;entryDx=0;entryDy=0;exitX=0.5;exitY=0;exitDx=0;exitDy=0;" edge="1" parent="1" source="HBoP1EM0kPf_Nuan5Jd2-10" target="HBoP1EM0kPf_Nuan5Jd2-3">
          <mxGeometry width="50" height="50" relative="1" as="geometry">
            <mxPoint x="100" y="270" as="sourcePoint" />
            <mxPoint x="197" y="223" as="targetPoint" />
          </mxGeometry>
        </mxCell>
        <mxCell id="HBoP1EM0kPf_Nuan5Jd2-19" value="" style="endArrow=classic;html=1;rounded=0;exitX=0.35;exitY=-0.033;exitDx=0;exitDy=0;entryX=0.667;entryY=1;entryDx=0;entryDy=0;entryPerimeter=0;exitPerimeter=0;" edge="1" parent="1" source="HBoP1EM0kPf_Nuan5Jd2-9" target="HBoP1EM0kPf_Nuan5Jd2-3">
          <mxGeometry width="50" height="50" relative="1" as="geometry">
            <mxPoint x="110" y="280" as="sourcePoint" />
            <mxPoint x="207" y="233" as="targetPoint" />
          </mxGeometry>
        </mxCell>
        <mxCell id="HBoP1EM0kPf_Nuan5Jd2-20" value="" style="endArrow=classic;html=1;rounded=0;exitX=0.5;exitY=0;exitDx=0;exitDy=0;entryX=0.442;entryY=1.017;entryDx=0;entryDy=0;entryPerimeter=0;" edge="1" parent="1" source="HBoP1EM0kPf_Nuan5Jd2-5" target="HBoP1EM0kPf_Nuan5Jd2-2">
          <mxGeometry width="50" height="50" relative="1" as="geometry">
            <mxPoint x="120" y="290" as="sourcePoint" />
            <mxPoint x="217" y="243" as="targetPoint" />
          </mxGeometry>
        </mxCell>
        <mxCell id="HBoP1EM0kPf_Nuan5Jd2-21" value="" style="endArrow=classic;html=1;rounded=0;exitX=0.608;exitY=-0.033;exitDx=0;exitDy=0;entryX=0.3;entryY=1.067;entryDx=0;entryDy=0;entryPerimeter=0;exitPerimeter=0;" edge="1" parent="1" source="HBoP1EM0kPf_Nuan5Jd2-2" target="HBoP1EM0kPf_Nuan5Jd2-14">
          <mxGeometry width="50" height="50" relative="1" as="geometry">
            <mxPoint x="223" y="117" as="sourcePoint" />
            <mxPoint x="320" y="70" as="targetPoint" />
          </mxGeometry>
        </mxCell>
        <mxCell id="HBoP1EM0kPf_Nuan5Jd2-22" value="" style="endArrow=classic;html=1;rounded=0;exitX=0.417;exitY=0;exitDx=0;exitDy=0;entryX=0.55;entryY=1.1;entryDx=0;entryDy=0;entryPerimeter=0;exitPerimeter=0;" edge="1" parent="1" source="HBoP1EM0kPf_Nuan5Jd2-3" target="HBoP1EM0kPf_Nuan5Jd2-14">
          <mxGeometry width="50" height="50" relative="1" as="geometry">
            <mxPoint x="140" y="310" as="sourcePoint" />
            <mxPoint x="237" y="263" as="targetPoint" />
          </mxGeometry>
        </mxCell>
        <mxCell id="HBoP1EM0kPf_Nuan5Jd2-23" value="Extends" style="text;html=1;strokeColor=none;fillColor=none;align=center;verticalAlign=middle;whiteSpace=wrap;rounded=0;" vertex="1" parent="1">
          <mxGeometry x="220" y="70" width="60" height="30" as="geometry" />
        </mxCell>
        <mxCell id="HBoP1EM0kPf_Nuan5Jd2-24" value="Extends" style="text;html=1;strokeColor=none;fillColor=none;align=center;verticalAlign=middle;whiteSpace=wrap;rounded=0;" vertex="1" parent="1">
          <mxGeometry x="470" y="70" width="60" height="30" as="geometry" />
        </mxCell>
        <mxCell id="HBoP1EM0kPf_Nuan5Jd2-25" value="Extends" style="text;html=1;strokeColor=none;fillColor=none;align=center;verticalAlign=middle;whiteSpace=wrap;rounded=0;" vertex="1" parent="1">
          <mxGeometry x="80" y="190" width="60" height="30" as="geometry" />
        </mxCell>
        <mxCell id="HBoP1EM0kPf_Nuan5Jd2-26" value="Extends" style="text;html=1;strokeColor=none;fillColor=none;align=center;verticalAlign=middle;whiteSpace=wrap;rounded=0;" vertex="1" parent="1">
          <mxGeometry x="150" y="200" width="60" height="30" as="geometry" />
        </mxCell>
        <mxCell id="HBoP1EM0kPf_Nuan5Jd2-27" value="Extends" style="text;html=1;strokeColor=none;fillColor=none;align=center;verticalAlign=middle;whiteSpace=wrap;rounded=0;" vertex="1" parent="1">
          <mxGeometry x="240" y="200" width="60" height="30" as="geometry" />
        </mxCell>
        <mxCell id="HBoP1EM0kPf_Nuan5Jd2-28" value="Extends" style="text;html=1;strokeColor=none;fillColor=none;align=center;verticalAlign=middle;whiteSpace=wrap;rounded=0;" vertex="1" parent="1">
          <mxGeometry x="460" y="200" width="60" height="30" as="geometry" />
        </mxCell>
        <mxCell id="HBoP1EM0kPf_Nuan5Jd2-29" value="Extends" style="text;html=1;strokeColor=none;fillColor=none;align=center;verticalAlign=middle;whiteSpace=wrap;rounded=0;" vertex="1" parent="1">
          <mxGeometry x="530" y="200" width="60" height="30" as="geometry" />
        </mxCell>
        <mxCell id="HBoP1EM0kPf_Nuan5Jd2-30" value="Extends" style="text;html=1;strokeColor=none;fillColor=none;align=center;verticalAlign=middle;whiteSpace=wrap;rounded=0;" vertex="1" parent="1">
          <mxGeometry x="640" y="200" width="60" height="30" as="geometry" />
        </mxCell>
      </root>
    </mxGraphModel>
  </diagram>
</mxfile>
